<svg width="98" height="98" viewBox="0 0 98 98" fill="none" xmlns="http://www.w3.org/2000/svg">
    <path
        d="M44.9167 16.3333H16.3334C14.1674 16.3333 12.0902 17.1937 10.5586 18.7253C9.0271 20.2568 8.16669 22.3341 8.16669 24.5V81.6667C8.16669 83.8326 9.0271 85.9098 10.5586 87.4414C12.0902 88.9729 14.1674 89.8333 16.3334 89.8333H73.5C75.666 89.8333 77.7432 88.9729 79.2747 87.4414C80.8063 85.9098 81.6667 83.8326 81.6667 81.6667V53.0833M75.5417 10.2083C77.1661 8.58387 79.3694 7.67126 81.6667 7.67126C83.964 7.67126 86.1672 8.58387 87.7917 10.2083C89.4161 11.8328 90.3287 14.036 90.3287 16.3333C90.3287 18.6306 89.4161 20.8339 87.7917 22.4583L49 61.25L32.6667 65.3333L36.75 49L75.5417 10.2083Z"
        stroke="#1E1E1E" stroke-width="4" stroke-linecap="round" stroke-linejoin="round" />
</svg>
    